<svg preserveAspectRatio="none" width="100%" height="100%" overflow="visible" style="display: block;" viewBox="0 0 12.9231 9.85385" fill="none" xmlns="http://www.w3.org/2000/svg">
<path id="Icon" d="M2.20769 9.31539C2.20769 9.45819 2.15096 9.59516 2.04998 9.69614C1.949 9.79712 1.81204 9.85385 1.66923 9.85385H0.538462C0.395653 9.85385 0.258693 9.79712 0.157712 9.69614C0.0567306 9.59516 0 9.45819 0 9.31539V0.538462C0 0.395653 0.0567306 0.258693 0.157712 0.157712C0.258693 0.0567306 0.395653 0 0.538462 0H1.64231C1.71302 0 1.78304 0.0139277 1.84837 0.0409879C1.9137 0.0680481 1.97306 0.107711 2.02306 0.157712C2.07306 0.207713 2.11272 0.267072 2.13978 0.332401C2.16684 0.39773 2.18077 0.46775 2.18077 0.538462L2.20769 9.31539ZM12.9231 5.46539C12.9165 5.60608 12.8577 5.73927 12.7581 5.83886C12.6585 5.93846 12.5253 5.99729 12.3846 6.00385H7.7C7.62404 5.99289 7.54659 6.0072 7.47956 6.04458C7.41253 6.08195 7.35964 6.14032 7.32904 6.21071C7.29844 6.28109 7.29182 6.35957 7.31021 6.43409C7.32859 6.5086 7.37095 6.575 7.43077 6.62308L8.72308 7.91539C8.82174 8.01604 8.877 8.15137 8.877 8.29231C8.877 8.43325 8.82174 8.56858 8.72308 8.66923L7.96923 9.47692C7.92167 9.52495 7.86506 9.56308 7.80267 9.58909C7.74029 9.61511 7.67336 9.62851 7.60577 9.62851C7.53818 9.62851 7.47125 9.61511 7.40887 9.58909C7.34648 9.56308 7.28987 9.52495 7.24231 9.47692L3.20385 5.30385C3.1509 5.25354 3.10873 5.19299 3.07992 5.12588C3.05111 5.05877 3.03625 4.9865 3.03625 4.91346C3.03625 4.84043 3.05111 4.76815 3.07992 4.70104C3.10873 4.63393 3.1509 4.57338 3.20385 4.52308L7.24231 0.403846C7.28987 0.355819 7.34648 0.317695 7.40887 0.291677C7.47125 0.265659 7.53818 0.252262 7.60577 0.252262C7.67336 0.252262 7.74029 0.265659 7.80267 0.291677C7.86506 0.317695 7.92167 0.355819 7.96923 0.403846L8.72308 1.15769C8.77603 1.208 8.81819 1.26854 8.847 1.33566C8.87582 1.40277 8.89067 1.47504 8.89067 1.54808C8.89067 1.62111 8.87582 1.69338 8.847 1.7605C8.81819 1.82761 8.77603 1.88816 8.72308 1.93846L7.45769 3.23077C7.41075 3.27964 7.37901 3.34109 7.36631 3.40765C7.35362 3.47421 7.36051 3.54303 7.38617 3.60574C7.41183 3.66846 7.45514 3.72238 7.51085 3.76096C7.56656 3.79954 7.63227 3.82112 7.7 3.82308H12.3846C12.5277 3.83601 12.6611 3.90048 12.7602 4.00449C12.8592 4.1085 12.9171 4.24496 12.9231 4.38846V5.46539Z" fill="var(--fill-0, #0250D9)"/>
</svg>
