<svg preserveAspectRatio="none" width="100%" height="100%" overflow="visible" style="display: block;" viewBox="0 0 11.3414 11.3077" fill="none" xmlns="http://www.w3.org/2000/svg">
<path id="Icon" fill-rule="evenodd" clip-rule="evenodd" d="M10.85 3.09615L9.93465 4.03846C9.77311 4.2 9.69234 4.38846 9.69234 4.60385V9.28846C9.69234 9.50385 9.50388 9.69231 9.28849 9.69231H2.01924C1.80385 9.69231 1.61539 9.50385 1.61539 9.28846V2.01923C1.61539 1.80385 1.80385 1.61538 2.01924 1.61538H6.73079C6.94618 1.61538 7.16156 1.53462 7.29618 1.37308L8.21157 0.457692C8.37311 0.296154 8.26541 0 8.02311 0H1.07693C0.484617 0 0 0.484615 0 1.07692V10.2308C0 10.8231 0.484617 11.3077 1.07693 11.3077H10.2308C10.8231 11.3077 11.3077 10.8231 11.3077 10.2308V3.28462C11.3077 3.04231 11.0116 2.93462 10.85 3.09615ZM3.68855 6.78456L4.68471 7.78071C4.73856 7.83456 4.7924 7.83456 4.84625 7.78071L10.0693 2.42302C10.1232 2.36917 10.1232 2.31533 10.0693 2.26148L9.10011 1.29225C9.04626 1.2384 8.99242 1.2384 8.93857 1.29225L3.68855 6.62302C3.63471 6.67687 3.63471 6.73071 3.68855 6.78456V6.78456ZM9.39621 0.834537C9.34236 0.888383 9.34236 0.942229 9.39621 0.996076L10.3654 1.96531C10.4193 2.01915 10.4731 2.01915 10.527 1.96531L11.2001 1.29223C11.3885 1.13069 11.3885 0.86146 11.2001 0.672999L10.7154 0.188383C10.527 -7.82716e-05 10.2577 -7.82716e-05 10.0693 0.188383C10.0424 0.188383 9.39621 0.834537 9.39621 0.834537V0.834537ZM2.79995 8.45381C2.77303 8.5615 2.88072 8.6692 2.98842 8.64227C3.14995 8.58843 3.33842 8.5615 3.49996 8.50766C3.63457 8.48073 3.76919 8.45381 3.9038 8.39996C4.03842 8.37304 4.17303 8.34612 4.28073 8.29227C4.33457 8.26535 4.44227 8.15766 4.3615 8.07689L3.33842 7.05381C3.25765 6.97304 3.17688 7.05381 3.14995 7.10766C3.06918 7.21535 3.04226 7.37689 3.01534 7.48458C2.98842 7.6192 2.93457 7.75381 2.90765 7.88843C2.88072 8.13073 2.8538 8.29227 2.79995 8.45381V8.45381Z" fill="var(--fill-0, #0250D9)"/>
</svg>
