<svg preserveAspectRatio="none" width="100%" height="100%" overflow="visible" style="display: block;" viewBox="0 0 7.43077 12.8692" fill="none" xmlns="http://www.w3.org/2000/svg">
<path id="Icon" fill-rule="evenodd" clip-rule="evenodd" d="M6.62308 5.81538H6.48846L5.57308 1.56154H5.81539C6.24615 1.56154 6.59615 1.21154 6.59615 0.780769C6.59615 0.35 6.24615 0 5.81539 0H1.56154C1.13077 0 0.780769 0.35 0.780769 0.780769C0.780769 1.21154 1.13077 1.56154 1.56154 1.56154H1.80385L0.915385 5.81538H0.780769C0.35 5.81538 0 6.16538 0 6.59615C0 7.02692 0.35 7.37692 0.780769 7.37692H3.04231V12.0615C3.04231 12.4923 3.39231 12.8692 3.85 12.8692C4.30769 12.8692 4.65769 12.5192 4.65769 12.0615V7.40385H6.65C7.08077 7.40385 7.43077 7.05385 7.43077 6.62308C7.43077 6.19231 7.05385 5.81538 6.62308 5.81538V5.81538Z" fill="var(--fill-0, #0250D9)"/>
</svg>
