<svg preserveAspectRatio="none" width="100%" height="100%" overflow="visible" style="display: block;" viewBox="0 0 12.9186 11.6905" fill="none" xmlns="http://www.w3.org/2000/svg">
<path id="Icon" d="M9.1952 7.51154L8.75635 7.95038C8.62981 8.07692 8.44404 8.07692 8.3175 7.95038L6.56481 6.19769C6.52443 6.13577 6.48135 6.05231 6.48135 5.96884V3.23346C6.48135 3.06654 6.62673 2.92115 6.79366 2.92115H7.42096C7.58789 2.91846 7.73327 3.06385 7.73327 3.23077V5.58923L9.1952 7.07C9.32173 7.19654 9.32173 7.38231 9.1952 7.50885V7.51154ZM7.10327 0C4.0125 0.00269231 1.48981 2.39885 1.2825 5.42769C1.27981 5.48961 1.27173 5.57308 1.26904 5.63769H0.321349C0.0494259 5.63769 -0.0959588 5.95 0.0709643 6.13846L1.6352 8.03654C1.76173 8.18192 1.99058 8.18192 2.11443 8.03654L3.67866 6.13846C3.84558 5.92846 3.7002 5.63769 3.42827 5.63769H2.5102C2.5102 5.29308 2.56404 4.95385 2.65558 4.62C2.73904 4.31577 2.8575 4.01962 3.00289 3.73962C3.14827 3.45962 3.32058 3.20115 3.51712 2.95615C3.71366 2.71115 3.93443 2.49308 4.17404 2.29654C4.41366 2.1 4.6775 1.925 4.95212 1.77962C5.22673 1.63423 5.52558 1.51308 5.82981 1.42692C6.13404 1.34077 6.45981 1.28423 6.78289 1.26269C6.8825 1.25731 6.98212 1.25192 7.07904 1.25192C9.79558 1.25192 11.944 3.61038 11.6506 6.36731C11.4406 8.34885 9.56404 10.2308 7.55827 10.4192C6.0775 10.5646 4.67481 10.0235 3.69481 8.95731C3.56827 8.81192 3.40135 8.72846 3.23443 8.93577L2.73366 9.54154C2.62866 9.66808 2.71212 9.75154 2.81712 9.85384C3.9452 11.0438 5.49058 11.7115 7.15981 11.69C10.1671 11.6469 12.6925 9.26961 12.8998 6.26231C13.1717 2.86192 10.4579 0.00269231 7.10058 0H7.10327Z" fill="var(--fill-0, #0250D9)"/>
</svg>
