<svg preserveAspectRatio="none" width="100%" height="100%" overflow="visible" style="display: block;" viewBox="0 0 9.93462 9.96154" fill="none" xmlns="http://www.w3.org/2000/svg">
<path id="Icon" fill-rule="evenodd" clip-rule="evenodd" d="M6.31346 4.80577L9.81346 1.27885C9.975 1.11731 9.975 0.875 9.81346 0.713462L9.275 0.148077C9.11346 -0.0134615 8.87115 -0.0134615 8.70962 0.148077L5.18269 3.675C5.075 3.78269 4.91346 3.78269 4.80577 3.675L1.27885 0.121154C1.11731 -0.0403846 0.875 -0.0403846 0.713462 0.121154L0.148077 0.686538C-0.0134615 0.848077 -0.0134615 1.09038 0.148077 1.25192L3.675 4.77885C3.78269 4.88654 3.78269 5.04808 3.675 5.15577L0.121154 8.70962C-0.0403846 8.87115 -0.0403846 9.11346 0.121154 9.275L0.686538 9.84038C0.848077 10.0019 1.09038 10.0019 1.25192 9.84038L4.77885 6.31346C4.88654 6.20577 5.04808 6.20577 5.15577 6.31346L8.68269 9.84038C8.84423 10.0019 9.08654 10.0019 9.24808 9.84038L9.81346 9.275C9.975 9.11346 9.975 8.87115 9.81346 8.70962L6.31346 5.18269C6.20577 5.075 6.20577 4.91346 6.31346 4.80577V4.80577Z" fill="var(--fill-0, #0250D9)"/>
</svg>
